<svg width="780" height="779" viewBox="0 0 780 779" fill="none" xmlns="http://www.w3.org/2000/svg">
<rect y="139" width="780" height="501" rx="40" fill="#393939"/>
<path d="M53.2148 283.359H72.9902L98.625 359.604L124.187 283.359H143.962L106.608 390H90.5684L53.2148 283.359ZM41.7891 283.359H61.9307L65.666 362.388V390H41.7891V283.359ZM135.246 283.359H155.461V390H131.511V362.388L135.246 283.359ZM168.718 351.182V349.644C168.718 343.833 169.548 338.486 171.208 333.604C172.868 328.672 175.31 324.399 178.532 320.786C181.755 317.173 185.71 314.365 190.397 312.363C195.085 310.312 200.456 309.287 206.511 309.287C212.663 309.287 218.083 310.312 222.771 312.363C227.507 314.365 231.486 317.173 234.709 320.786C237.932 324.399 240.373 328.672 242.033 333.604C243.693 338.486 244.523 343.833 244.523 349.644V351.182C244.523 356.943 243.693 362.29 242.033 367.222C240.373 372.104 237.932 376.377 234.709 380.039C231.486 383.652 227.531 386.46 222.844 388.462C218.156 390.464 212.761 391.465 206.657 391.465C200.603 391.465 195.207 390.464 190.471 388.462C185.734 386.46 181.755 383.652 178.532 380.039C175.31 376.377 172.868 372.104 171.208 367.222C169.548 362.29 168.718 356.943 168.718 351.182ZM191.643 349.644V351.182C191.643 354.307 191.887 357.236 192.375 359.971C192.912 362.705 193.767 365.098 194.938 367.148C196.11 369.199 197.648 370.811 199.553 371.982C201.506 373.105 203.874 373.667 206.657 373.667C209.44 373.667 211.784 373.105 213.688 371.982C215.593 370.811 217.131 369.199 218.303 367.148C219.475 365.098 220.305 362.705 220.793 359.971C221.33 357.236 221.599 354.307 221.599 351.182V349.644C221.599 346.567 221.33 343.687 220.793 341.001C220.305 338.267 219.475 335.85 218.303 333.75C217.131 331.65 215.568 330.015 213.615 328.843C211.711 327.671 209.343 327.085 206.511 327.085C203.776 327.085 201.457 327.671 199.553 328.843C197.648 330.015 196.11 331.65 194.938 333.75C193.767 335.85 192.912 338.267 192.375 341.001C191.887 343.687 191.643 346.567 191.643 349.644ZM278.947 327.671V390H256.022V310.752H277.556L278.947 327.671ZM275.944 347.593L270.231 347.739C270.231 341.782 270.964 336.436 272.429 331.699C273.894 326.963 275.969 322.935 278.654 319.614C281.389 316.245 284.636 313.682 288.396 311.924C292.204 310.166 296.403 309.287 300.993 309.287C304.704 309.287 308.098 309.824 311.174 310.898C314.25 311.973 316.887 313.706 319.084 316.099C321.33 318.442 323.039 321.567 324.211 325.474C325.383 329.331 325.969 334.092 325.969 339.756V390H302.971V339.683C302.971 336.362 302.507 333.799 301.579 331.992C300.651 330.186 299.284 328.916 297.478 328.184C295.72 327.451 293.571 327.085 291.032 327.085C288.347 327.085 286.052 327.622 284.147 328.696C282.243 329.722 280.681 331.162 279.46 333.018C278.239 334.873 277.336 337.046 276.75 339.536C276.213 342.026 275.944 344.712 275.944 347.593ZM337.614 351.182V349.644C337.614 343.833 338.444 338.486 340.104 333.604C341.765 328.672 344.206 324.399 347.429 320.786C350.651 317.173 354.606 314.365 359.294 312.363C363.981 310.312 369.353 309.287 375.407 309.287C381.56 309.287 386.979 310.312 391.667 312.363C396.403 314.365 400.383 317.173 403.605 320.786C406.828 324.399 409.27 328.672 410.93 333.604C412.59 338.486 413.42 343.833 413.42 349.644V351.182C413.42 356.943 412.59 362.29 410.93 367.222C409.27 372.104 406.828 376.377 403.605 380.039C400.383 383.652 396.428 386.46 391.74 388.462C387.053 390.464 381.657 391.465 375.554 391.465C369.499 391.465 364.104 390.464 359.367 388.462C354.631 386.46 350.651 383.652 347.429 380.039C344.206 376.377 341.765 372.104 340.104 367.222C338.444 362.29 337.614 356.943 337.614 351.182ZM360.539 349.644V351.182C360.539 354.307 360.783 357.236 361.271 359.971C361.809 362.705 362.663 365.098 363.835 367.148C365.007 369.199 366.545 370.811 368.449 371.982C370.402 373.105 372.771 373.667 375.554 373.667C378.337 373.667 380.681 373.105 382.585 371.982C384.489 370.811 386.027 369.199 387.199 367.148C388.371 365.098 389.201 362.705 389.689 359.971C390.227 357.236 390.495 354.307 390.495 351.182V349.644C390.495 346.567 390.227 343.687 389.689 341.001C389.201 338.267 388.371 335.85 387.199 333.75C386.027 331.65 384.465 330.015 382.512 328.843C380.607 327.671 378.239 327.085 375.407 327.085C372.673 327.085 370.354 327.671 368.449 328.843C366.545 330.015 365.007 331.65 363.835 333.75C362.663 335.85 361.809 338.267 361.271 341.001C360.783 343.687 360.539 346.567 360.539 349.644ZM425.505 277.5H448.356V371.177L446.013 390H425.505V277.5ZM497.795 349.497V351.035C497.795 357.041 497.16 362.51 495.891 367.441C494.67 372.373 492.79 376.646 490.251 380.259C487.712 383.823 484.514 386.582 480.656 388.535C476.799 390.488 472.258 391.465 467.033 391.465C462.199 391.465 458.049 390.464 454.582 388.462C451.115 386.411 448.21 383.579 445.866 379.966C443.522 376.353 441.618 372.129 440.153 367.295C438.737 362.461 437.639 357.261 436.857 351.694V349.058C437.639 343.491 438.737 338.291 440.153 333.457C441.618 328.623 443.522 324.399 445.866 320.786C448.21 317.173 451.091 314.365 454.509 312.363C457.976 310.312 462.102 309.287 466.887 309.287C472.16 309.287 476.726 310.288 480.583 312.29C484.489 314.292 487.712 317.1 490.251 320.713C492.79 324.277 494.67 328.525 495.891 333.457C497.16 338.34 497.795 343.687 497.795 349.497ZM474.943 351.035V349.497C474.943 346.47 474.724 343.613 474.284 340.928C473.894 338.242 473.186 335.874 472.16 333.823C471.184 331.724 469.792 330.088 467.985 328.916C466.228 327.695 463.957 327.085 461.174 327.085C458.439 327.085 456.12 327.549 454.216 328.477C452.312 329.404 450.773 330.723 449.602 332.432C448.43 334.092 447.575 336.118 447.038 338.511C446.501 340.903 446.208 343.564 446.159 346.494V354.258C446.208 358.164 446.721 361.582 447.697 364.512C448.674 367.441 450.261 369.712 452.458 371.323C454.655 372.886 457.609 373.667 461.32 373.667C464.152 373.667 466.447 373.13 468.205 372.056C470.012 370.933 471.379 369.37 472.307 367.368C473.283 365.366 473.967 362.974 474.357 360.19C474.748 357.407 474.943 354.355 474.943 351.035ZM551.921 371.104V337.119C551.921 334.727 551.555 332.676 550.822 330.967C550.09 329.258 548.942 327.915 547.38 326.938C545.817 325.962 543.791 325.474 541.301 325.474C539.201 325.474 537.37 325.84 535.808 326.572C534.294 327.305 533.122 328.354 532.292 329.722C531.511 331.089 531.12 332.773 531.12 334.775H508.269C508.269 331.211 509.074 327.891 510.686 324.814C512.297 321.738 514.592 319.028 517.57 316.685C520.598 314.341 524.211 312.534 528.41 311.265C532.609 309.946 537.321 309.287 542.546 309.287C548.747 309.287 554.265 310.337 559.099 312.437C563.981 314.487 567.839 317.588 570.671 321.738C573.503 325.84 574.919 331.016 574.919 337.266V370.444C574.919 375.229 575.188 378.989 575.725 381.724C576.311 384.409 577.141 386.753 578.215 388.755V390H555.144C554.069 387.705 553.264 384.873 552.727 381.504C552.189 378.086 551.921 374.619 551.921 371.104ZM554.777 341.66L554.924 354.258H543.571C541.032 354.258 538.835 354.575 536.979 355.21C535.173 355.845 533.708 356.724 532.585 357.847C531.462 358.921 530.632 360.19 530.095 361.655C529.606 363.071 529.362 364.634 529.362 366.343C529.362 367.954 529.753 369.419 530.534 370.737C531.315 372.007 532.39 373.008 533.757 373.74C535.124 374.473 536.711 374.839 538.518 374.839C541.496 374.839 544.035 374.253 546.135 373.081C548.283 371.909 549.943 370.493 551.115 368.833C552.287 367.124 552.873 365.537 552.873 364.072L558.366 373.594C557.487 375.547 556.413 377.573 555.144 379.673C553.874 381.724 552.263 383.652 550.31 385.459C548.356 387.217 545.988 388.657 543.205 389.78C540.471 390.903 537.175 391.465 533.317 391.465C528.337 391.465 523.82 390.464 519.768 388.462C515.715 386.411 512.468 383.604 510.026 380.039C507.634 376.475 506.438 372.373 506.438 367.734C506.438 363.584 507.194 359.897 508.708 356.675C510.222 353.452 512.492 350.718 515.52 348.472C518.596 346.226 522.453 344.541 527.092 343.418C531.73 342.246 537.15 341.66 543.352 341.66H554.777ZM612.346 327.671V390H589.421V310.752H610.954L612.346 327.671ZM609.343 347.593L603.63 347.739C603.63 341.782 604.362 336.436 605.827 331.699C607.292 326.963 609.367 322.935 612.053 319.614C614.787 316.245 618.034 313.682 621.794 311.924C625.603 310.166 629.802 309.287 634.392 309.287C638.103 309.287 641.496 309.824 644.572 310.898C647.648 311.973 650.285 313.706 652.482 316.099C654.729 318.442 656.438 321.567 657.609 325.474C658.781 329.331 659.367 334.092 659.367 339.756V390H636.369V339.683C636.369 336.362 635.905 333.799 634.978 331.992C634.05 330.186 632.683 328.916 630.876 328.184C629.118 327.451 626.97 327.085 624.431 327.085C621.745 327.085 619.45 327.622 617.546 328.696C615.642 329.722 614.079 331.162 612.858 333.018C611.638 334.873 610.734 337.046 610.148 339.536C609.611 342.026 609.343 344.712 609.343 347.593ZM697.307 277.427V390H674.382V277.427H697.307ZM747.624 310.752L713.127 350.596L694.89 368.906L685.734 353.452L700.529 334.336L720.085 310.752H747.624ZM723.454 390L701.115 353.599L717.521 340.781L749.675 390H723.454ZM64.3428 422.234H75.4854V454.91C75.4854 458.784 74.665 462.042 73.0244 464.686C71.4066 467.329 69.1507 469.323 66.2568 470.667C63.363 472.011 60.0133 472.684 56.208 472.684C52.3799 472.684 49.0075 472.011 46.0908 470.667C43.1969 469.323 40.9183 467.329 39.2549 464.686C37.6143 462.042 36.7939 458.784 36.7939 454.91V422.234H47.9707V454.91C47.9707 457.052 48.2897 458.807 48.9277 460.174C49.5885 461.518 50.5342 462.509 51.7646 463.147C52.9951 463.763 54.4762 464.07 56.208 464.07C57.9398 464.07 59.4095 463.763 60.6172 463.147C61.8477 462.509 62.7705 461.518 63.3857 460.174C64.0238 458.807 64.3428 457.052 64.3428 454.91V422.234ZM93.3613 442.913V472H82.6631V435.018H92.7119L93.3613 442.913ZM91.96 452.21L89.2939 452.278C89.2939 449.498 89.6357 447.003 90.3193 444.793C91.0029 442.583 91.9714 440.703 93.2246 439.153C94.5007 437.581 96.016 436.385 97.7705 435.564C99.5479 434.744 101.507 434.334 103.649 434.334C105.381 434.334 106.965 434.585 108.4 435.086C109.836 435.587 111.066 436.396 112.092 437.513C113.14 438.606 113.938 440.065 114.484 441.888C115.031 443.688 115.305 445.91 115.305 448.553V472H104.572V448.519C104.572 446.969 104.356 445.773 103.923 444.93C103.49 444.087 102.852 443.494 102.009 443.152C101.188 442.811 100.186 442.64 99.001 442.64C97.7477 442.64 96.6768 442.89 95.7881 443.392C94.8994 443.87 94.1702 444.542 93.6006 445.408C93.0309 446.274 92.6094 447.288 92.3359 448.45C92.0853 449.612 91.96 450.866 91.96 452.21ZM133.522 435.018V472H122.824V435.018H133.522ZM122.175 425.447C122.175 423.898 122.722 422.633 123.815 421.653C124.909 420.651 126.345 420.149 128.122 420.149C129.899 420.149 131.335 420.651 132.429 421.653C133.545 422.633 134.104 423.898 134.104 425.447C134.104 426.974 133.545 428.239 132.429 429.241C131.335 430.221 129.899 430.711 128.122 430.711C126.345 430.711 124.909 430.221 123.815 429.241C122.722 428.239 122.175 426.974 122.175 425.447ZM154.167 464.446L161.892 435.018H173.103L160.832 472H154.099L154.167 464.446ZM149.177 435.018L156.867 464.48L156.936 472H150.202L137.932 435.018H149.177ZM193.986 472.684C191.047 472.684 188.415 472.216 186.091 471.282C183.767 470.348 181.796 469.061 180.178 467.42C178.583 465.757 177.364 463.842 176.521 461.678C175.677 459.513 175.256 457.2 175.256 454.739V453.44C175.256 450.683 175.643 448.143 176.418 445.818C177.193 443.494 178.321 441.478 179.802 439.769C181.306 438.037 183.151 436.704 185.339 435.77C187.526 434.812 190.021 434.334 192.824 434.334C195.445 434.334 197.78 434.767 199.831 435.633C201.882 436.476 203.614 437.695 205.026 439.29C206.439 440.862 207.51 442.765 208.239 444.998C208.991 447.208 209.367 449.692 209.367 452.449V456.824H179.562V449.954H198.908V449.134C198.908 447.835 198.669 446.696 198.19 445.716C197.735 444.736 197.051 443.984 196.14 443.46C195.251 442.913 194.123 442.64 192.756 442.64C191.457 442.64 190.375 442.913 189.509 443.46C188.643 444.007 187.948 444.782 187.424 445.784C186.923 446.764 186.558 447.915 186.33 449.236C186.102 450.535 185.988 451.937 185.988 453.44V454.739C185.988 456.175 186.182 457.485 186.569 458.67C186.957 459.855 187.526 460.869 188.278 461.712C189.03 462.555 189.942 463.216 191.013 463.694C192.084 464.173 193.303 464.412 194.67 464.412C196.356 464.412 197.963 464.093 199.489 463.455C201.016 462.794 202.338 461.769 203.454 460.379L208.444 466.087C207.692 467.181 206.633 468.24 205.266 469.266C203.921 470.268 202.303 471.089 200.412 471.727C198.521 472.365 196.379 472.684 193.986 472.684ZM225.261 443.631V472H214.597V435.018H224.611L225.261 443.631ZM236.301 434.744L236.13 444.69C235.674 444.622 235.082 444.565 234.353 444.52C233.623 444.451 232.997 444.417 232.473 444.417C231.105 444.417 229.921 444.588 228.918 444.93C227.938 445.249 227.118 445.727 226.457 446.365C225.819 447.003 225.34 447.801 225.021 448.758C224.702 449.692 224.543 450.774 224.543 452.005L222.526 451.014C222.526 448.576 222.766 446.342 223.244 444.314C223.723 442.286 224.418 440.532 225.329 439.051C226.241 437.547 227.357 436.385 228.679 435.564C230 434.744 231.504 434.334 233.19 434.334C233.737 434.334 234.296 434.368 234.865 434.437C235.435 434.505 235.913 434.607 236.301 434.744ZM260.363 461.712C260.363 461.028 260.147 460.424 259.714 459.9C259.304 459.376 258.552 458.898 257.458 458.465C256.387 458.032 254.872 457.599 252.912 457.166C251.066 456.779 249.346 456.277 247.751 455.662C246.156 455.024 244.766 454.261 243.581 453.372C242.396 452.461 241.473 451.39 240.812 450.159C240.152 448.906 239.821 447.482 239.821 445.887C239.821 444.337 240.152 442.868 240.812 441.478C241.496 440.088 242.476 438.857 243.752 437.786C245.051 436.715 246.623 435.872 248.469 435.257C250.337 434.642 252.456 434.334 254.826 434.334C258.085 434.334 260.899 434.847 263.269 435.872C265.638 436.875 267.461 438.287 268.737 440.11C270.013 441.91 270.651 443.973 270.651 446.297H259.987C259.987 445.34 259.805 444.508 259.44 443.802C259.076 443.095 258.518 442.549 257.766 442.161C257.014 441.751 256.022 441.546 254.792 441.546C253.835 441.546 252.992 441.717 252.263 442.059C251.556 442.378 250.998 442.822 250.588 443.392C250.201 443.961 250.007 444.622 250.007 445.374C250.007 445.898 250.121 446.377 250.349 446.81C250.599 447.22 250.975 447.607 251.477 447.972C252.001 448.313 252.673 448.621 253.493 448.895C254.336 449.168 255.362 449.43 256.569 449.681C259.144 450.159 261.491 450.831 263.61 451.697C265.752 452.563 267.461 453.759 268.737 455.286C270.036 456.813 270.686 458.829 270.686 461.336C270.686 462.977 270.31 464.48 269.558 465.848C268.828 467.215 267.769 468.411 266.379 469.437C264.989 470.462 263.326 471.259 261.389 471.829C259.452 472.399 257.264 472.684 254.826 472.684C251.34 472.684 248.389 472.057 245.974 470.804C243.558 469.55 241.735 467.978 240.505 466.087C239.297 464.173 238.693 462.213 238.693 460.208H248.708C248.754 461.438 249.061 462.441 249.631 463.216C250.223 463.991 250.987 464.56 251.921 464.925C252.855 465.267 253.903 465.438 255.065 465.438C256.228 465.438 257.196 465.278 257.971 464.959C258.745 464.64 259.338 464.207 259.748 463.66C260.158 463.09 260.363 462.441 260.363 461.712ZM296.218 463.182V447.322C296.218 446.206 296.047 445.249 295.705 444.451C295.363 443.654 294.828 443.027 294.099 442.571C293.369 442.116 292.424 441.888 291.262 441.888C290.282 441.888 289.427 442.059 288.698 442.4C287.992 442.742 287.445 443.232 287.058 443.87C286.693 444.508 286.511 445.294 286.511 446.229H275.847C275.847 444.565 276.223 443.016 276.975 441.58C277.727 440.145 278.798 438.88 280.188 437.786C281.6 436.692 283.286 435.849 285.246 435.257C287.206 434.642 289.405 434.334 291.843 434.334C294.737 434.334 297.312 434.824 299.567 435.804C301.846 436.761 303.646 438.208 304.968 440.145C306.289 442.059 306.95 444.474 306.95 447.391V462.874C306.95 465.107 307.076 466.862 307.326 468.138C307.6 469.391 307.987 470.485 308.488 471.419V472H297.722C297.22 470.929 296.844 469.607 296.594 468.035C296.343 466.44 296.218 464.822 296.218 463.182ZM297.551 449.441L297.619 455.32H292.321C291.136 455.32 290.111 455.468 289.245 455.765C288.402 456.061 287.718 456.471 287.194 456.995C286.67 457.496 286.283 458.089 286.032 458.772C285.804 459.433 285.69 460.162 285.69 460.96C285.69 461.712 285.873 462.396 286.237 463.011C286.602 463.603 287.103 464.07 287.741 464.412C288.379 464.754 289.12 464.925 289.963 464.925C291.353 464.925 292.538 464.651 293.518 464.104C294.52 463.558 295.295 462.897 295.842 462.122C296.389 461.325 296.662 460.584 296.662 459.9L299.226 464.344C298.815 465.255 298.314 466.201 297.722 467.181C297.129 468.138 296.377 469.038 295.466 469.881C294.554 470.701 293.449 471.373 292.15 471.897C290.874 472.422 289.336 472.684 287.536 472.684C285.212 472.684 283.104 472.216 281.213 471.282C279.322 470.325 277.806 469.015 276.667 467.352C275.55 465.688 274.992 463.774 274.992 461.609C274.992 459.673 275.345 457.952 276.052 456.448C276.758 454.944 277.818 453.668 279.23 452.62C280.666 451.572 282.466 450.786 284.631 450.262C286.796 449.715 289.325 449.441 292.219 449.441H297.551ZM325.202 419.5V472H314.504V419.5H325.202ZM370.764 450.501H357.98L357.912 443.05H368.474C370.342 443.05 371.857 442.822 373.02 442.366C374.204 441.91 375.07 441.25 375.617 440.384C376.164 439.495 376.438 438.401 376.438 437.103C376.438 435.621 376.164 434.425 375.617 433.514C375.07 432.602 374.204 431.941 373.02 431.531C371.857 431.098 370.354 430.882 368.508 430.882H362.014V472H350.871V422.234H368.508C371.493 422.234 374.159 422.508 376.506 423.055C378.853 423.602 380.847 424.445 382.487 425.584C384.151 426.723 385.415 428.147 386.281 429.856C387.147 431.565 387.58 433.582 387.58 435.906C387.58 437.934 387.124 439.826 386.213 441.58C385.324 443.335 383.889 444.759 381.906 445.853C379.924 446.946 377.269 447.539 373.942 447.63L370.764 450.501ZM370.319 472H355.144L359.177 463.387H370.319C372.028 463.387 373.418 463.113 374.489 462.566C375.56 462.02 376.346 461.279 376.848 460.345C377.349 459.41 377.6 458.362 377.6 457.2C377.6 455.833 377.36 454.648 376.882 453.646C376.426 452.643 375.697 451.868 374.694 451.321C373.715 450.774 372.404 450.501 370.764 450.501H360.783L360.852 443.05H373.054L375.651 445.989C378.819 445.921 381.348 446.434 383.239 447.527C385.153 448.598 386.532 450.011 387.375 451.766C388.218 453.52 388.64 455.377 388.64 457.337C388.64 460.573 387.945 463.284 386.555 465.472C385.165 467.636 383.103 469.266 380.368 470.359C377.657 471.453 374.307 472 370.319 472ZM414.89 463.182V447.322C414.89 446.206 414.719 445.249 414.377 444.451C414.035 443.654 413.5 443.027 412.771 442.571C412.041 442.116 411.096 441.888 409.934 441.888C408.954 441.888 408.099 442.059 407.37 442.4C406.664 442.742 406.117 443.232 405.729 443.87C405.365 444.508 405.183 445.294 405.183 446.229H394.519C394.519 444.565 394.895 443.016 395.646 441.58C396.398 440.145 397.469 438.88 398.859 437.786C400.272 436.692 401.958 435.849 403.918 435.257C405.878 434.642 408.076 434.334 410.515 434.334C413.409 434.334 415.983 434.824 418.239 435.804C420.518 436.761 422.318 438.208 423.64 440.145C424.961 442.059 425.622 444.474 425.622 447.391V462.874C425.622 465.107 425.747 466.862 425.998 468.138C426.271 469.391 426.659 470.485 427.16 471.419V472H416.394C415.892 470.929 415.516 469.607 415.266 468.035C415.015 466.44 414.89 464.822 414.89 463.182ZM416.223 449.441L416.291 455.32H410.993C409.808 455.32 408.783 455.468 407.917 455.765C407.074 456.061 406.39 456.471 405.866 456.995C405.342 457.496 404.955 458.089 404.704 458.772C404.476 459.433 404.362 460.162 404.362 460.96C404.362 461.712 404.545 462.396 404.909 463.011C405.274 463.603 405.775 464.07 406.413 464.412C407.051 464.754 407.792 464.925 408.635 464.925C410.025 464.925 411.21 464.651 412.189 464.104C413.192 463.558 413.967 462.897 414.514 462.122C415.061 461.325 415.334 460.584 415.334 459.9L417.897 464.344C417.487 465.255 416.986 466.201 416.394 467.181C415.801 468.138 415.049 469.038 414.138 469.881C413.226 470.701 412.121 471.373 410.822 471.897C409.546 472.422 408.008 472.684 406.208 472.684C403.884 472.684 401.776 472.216 399.885 471.282C397.993 470.325 396.478 469.015 395.339 467.352C394.222 465.688 393.664 463.774 393.664 461.609C393.664 459.673 394.017 457.952 394.724 456.448C395.43 454.944 396.49 453.668 397.902 452.62C399.338 451.572 401.138 450.786 403.303 450.262C405.467 449.715 407.997 449.441 410.891 449.441H416.223ZM443.088 442.913V472H432.39V435.018H442.438L443.088 442.913ZM441.687 452.21L439.021 452.278C439.021 449.498 439.362 447.003 440.046 444.793C440.729 442.583 441.698 440.703 442.951 439.153C444.227 437.581 445.743 436.385 447.497 435.564C449.274 434.744 451.234 434.334 453.376 434.334C455.108 434.334 456.691 434.585 458.127 435.086C459.562 435.587 460.793 436.396 461.818 437.513C462.867 438.606 463.664 440.065 464.211 441.888C464.758 443.688 465.031 445.91 465.031 448.553V472H454.299V448.519C454.299 446.969 454.082 445.773 453.649 444.93C453.216 444.087 452.578 443.494 451.735 443.152C450.915 442.811 449.912 442.64 448.728 442.64C447.474 442.64 446.403 442.89 445.515 443.392C444.626 443.87 443.897 444.542 443.327 445.408C442.757 446.274 442.336 447.288 442.062 448.45C441.812 449.612 441.687 450.866 441.687 452.21ZM482.736 419.466V472H472.038V419.466H482.736ZM506.218 435.018L490.119 453.611L481.608 462.156L477.336 454.944L484.24 446.023L493.366 435.018H506.218ZM494.938 472L484.514 455.013L492.17 449.031L507.175 472H494.938Z" fill="white"/>
</svg>
