<svg width="780" height="779" viewBox="0 0 780 779" fill="none" xmlns="http://www.w3.org/2000/svg">
<g clip-path="url(#clip0_1_13)">
<rect x="23" y="169" width="730" height="441" fill="white"/>
<path d="M737.04 140H42.46C19.573 140 1.00201 158.975 1.00201 182.383V596.613C1.00201 620.026 19.564 638.997 42.46 638.997H737.04C759.929 638.997 778.499 620.021 778.499 596.613V182.383C778.499 158.971 759.937 140 737.04 140V140ZM519.1 605.4C470.417 605.4 425.538 588.51 389.73 560.265C353.948 588.511 309.068 605.4 260.38 605.4C143.66 605.4 48.7 508.521 48.7 389.48C48.7 270.43 143.659 173.6 260.38 173.6C309.066 173.6 353.944 190.427 389.73 218.713C425.534 190.427 470.413 173.6 519.1 173.6C635.82 173.6 730.78 270.434 730.78 389.48C730.779 508.52 635.814 605.4 519.1 605.4Z" fill="#393939"/>
<path d="M219.07 403.3C216.982 403.081 216.072 402.997 214.639 402.997C203.374 402.997 197.699 406.939 197.699 414.706C197.699 419.516 200.484 422.577 204.788 422.577C212.89 422.577 218.71 414.706 219.07 403.3Z" fill="#393939"/>
<path d="M550 403.3C547.933 403.081 547.006 402.997 545.548 402.997C534.304 402.997 528.609 406.939 528.609 414.706C528.609 419.516 531.395 422.577 535.743 422.577C543.822 422.577 549.665 414.706 550 403.3Z" fill="#393939"/>
<path d="M380.67 390.16C380.797 388.564 382.757 376.355 371.493 376.355C365.207 376.355 360.694 381.294 358.882 390.16H380.67Z" fill="#393939"/>
<path d="M646.93 419.85C656.168 419.85 662.688 409.128 662.688 393.863C662.688 384.051 658.999 378.745 652.158 378.745C643.15 378.745 636.759 389.463 636.759 404.624C636.758 414.736 640.18 419.85 646.93 419.85V419.85Z" fill="#393939"/>
<path d="M518.44 192.958C475.557 192.958 435.967 207.321 403.98 231.558C432.989 259.157 454.442 294.996 464.692 335.388H445.1C435.061 299.681 415.438 268.155 389.236 243.893C363.063 268.155 343.425 299.68 333.425 335.388H313.802C324.076 294.999 345.529 259.16 374.538 231.558C342.536 207.321 302.96 192.958 260.058 192.958C153.758 192.958 67.598 281.044 67.598 389.728C67.598 498.388 153.767 586.498 260.058 586.498C302.962 586.498 342.537 572.135 374.538 547.898C347.242 521.911 326.651 488.616 315.765 451.139H335.577C346.102 483.954 364.787 512.92 389.235 535.563C413.71 512.92 432.42 483.955 442.946 451.139H462.752C451.849 488.618 431.261 521.91 403.98 547.898C435.963 572.134 475.553 586.498 518.44 586.498C624.73 586.498 710.9 498.384 710.9 389.728C710.9 281.038 624.729 192.958 518.44 192.958V192.958ZM146.95 437.668L158.321 364.778L132.945 437.668H119.403L117.736 365.211L105.799 437.668H87.212L102.714 342.829H131.275L132.077 401.527L151.338 342.829H182.158L166.8 437.668H146.95V437.668ZM239.426 396.741C237.697 407.887 234.004 431.823 233.497 437.668H217.043L217.426 429.668C212.403 435.985 205.716 439.008 196.628 439.008C185.847 439.008 178.508 430.404 178.508 417.959C178.508 399.153 191.309 388.222 213.332 388.222C215.589 388.222 218.478 388.437 221.432 388.825C222.045 386.259 222.193 385.181 222.193 383.8C222.193 378.712 218.752 376.793 209.471 376.793C199.77 376.663 191.753 379.144 188.462 380.265C188.675 378.972 191.226 362.927 191.226 362.927C201.101 359.952 207.636 358.83 214.976 358.83C232.022 358.83 241.05 366.636 241.029 381.43C241.05 385.396 240.417 390.291 239.426 396.741ZM293.194 378.237C288.173 377.504 282.837 377.07 278.957 377.07C272.524 377.07 269.212 379.185 269.212 383.368C269.212 386.969 270.183 387.832 278.491 391.756C288.449 396.439 292.479 402.606 292.479 413.235C292.479 430.831 282.816 439.006 261.871 439.006C249.741 438.656 245.734 437.713 241.199 436.721L243.94 418.908C250.291 421.017 255.818 421.925 261.724 421.925C269.591 421.925 273.136 419.769 273.136 414.985C273.136 411.465 271.891 410.346 263.854 406.465C253.347 401.397 248.75 394.692 248.75 384.922V384.921C248.665 370.667 256.343 358.828 278.554 358.828C283.091 358.828 290.874 359.518 296.022 360.338L293.194 378.237V378.237ZM334.688 379.098H324.504C322.224 393.742 318.954 411.985 318.911 414.442C318.911 418.432 320.999 420.155 325.723 420.155C327.981 420.155 329.73 419.899 331.059 419.424L328.448 436.506C322.998 438.228 318.764 439.008 314.162 439.008C304.018 439.008 298.489 433.034 298.489 422.054C298.365 418.649 299.967 409.701 301.233 401.484C302.351 394.302 309.816 348.913 309.816 348.913H329.542L327.244 360.553H337.39L334.688 379.098V379.098ZM396.663 405.732H357.384C356.055 416.878 363.061 421.538 374.538 421.538C381.601 421.538 387.954 420.07 395.039 416.708L391.77 435.9C384.978 438.016 378.435 439.007 371.52 439.007C349.409 438.959 337.896 427.167 337.896 404.589C337.896 378.235 352.555 358.827 372.446 358.827C388.71 358.827 399.113 369.674 399.113 386.753C399.113 392.404 398.376 397.903 396.663 405.732V405.732ZM440.709 382.461C429.593 381.297 427.886 390.506 420.775 437.665H400.925L401.834 432.472C405.272 408.576 409.7 384.403 412.193 360.551H430.415C430.58 364.476 429.719 368.294 429.232 372.262C435.292 363.141 439.969 358.309 448.262 360.08C445.813 364.35 442.502 372.779 440.709 382.461V382.461ZM500.3 436.203C493.001 438.271 488.255 439.008 482.772 439.008C461.406 439.008 448.088 423.264 448.088 398.079C448.088 364.176 466.484 340.5 492.791 340.5C501.458 340.5 511.69 344.253 514.601 345.416L511.35 365.988C504.263 362.321 499.117 360.853 493.61 360.853C478.785 360.853 468.421 375.498 468.421 396.391C468.421 410.777 475.385 419.489 486.922 419.489C491.824 419.489 497.221 417.919 503.781 414.617L500.3 436.203V436.203ZM570.354 396.741C568.646 407.887 564.938 431.823 564.427 437.668H547.997L548.376 429.668C543.334 435.985 536.624 439.008 527.552 439.008C516.795 439.008 509.409 430.404 509.409 417.959C509.409 399.153 522.258 388.222 544.259 388.222C546.517 388.222 549.407 388.437 552.363 388.825C552.968 386.259 553.12 385.181 553.12 383.8C553.12 378.712 549.682 376.793 540.419 376.793C530.697 376.663 522.704 379.144 519.41 380.265C519.599 378.972 522.154 362.927 522.154 362.927C532.046 359.952 538.584 358.83 545.883 358.83C562.948 358.83 571.981 366.636 571.956 381.43C571.999 385.396 571.347 390.291 570.354 396.741V396.741ZM594.277 437.665H574.446L575.355 432.472C578.793 408.576 583.203 384.403 585.691 360.551H603.918C604.107 364.476 603.241 368.294 602.758 372.262C608.81 363.141 613.454 358.309 621.78 360.08C619.293 364.35 616 372.779 614.229 382.461C603.114 381.297 601.387 390.506 594.277 437.665V437.665ZM657.435 437.665L658.381 430.487C652.916 436.42 647.329 439.008 640.072 439.008C625.64 439.008 616.108 426.304 616.108 407.027C616.108 381.339 630.89 359.733 648.398 359.733C656.081 359.733 661.942 362.925 667.368 370.236L671.754 342.828H691.334L676.224 437.665H657.435Z" fill="#393939"/>
</g>
<defs>
<clipPath id="clip0_1_13">
<rect width="780" height="779" fill="white"/>
</clipPath>
</defs>
</svg>
