<svg width="780" height="779" viewBox="0 0 780 779" fill="none" xmlns="http://www.w3.org/2000/svg">
<g clip-path="url(#clip0_1_13)">
<g clip-path="url(#clip1_1_13)">
<rect x="40" y="208" width="720" height="359" fill="white"/>
<path d="M737.04 140H42.46C19.573 140 1.00201 158.994 1.00201 182.426V597.076C1.00201 620.513 19.564 639.502 42.46 639.502H737.04C759.928 639.502 778.499 620.508 778.499 597.076V182.426C778.499 158.99 759.937 140 737.04 140V140ZM155.42 493.64L106.243 313.32C89.239 303.675 69.836 295.923 48.139 290.55L48.845 286.231H138.041C150.056 286.688 159.768 290.611 163.116 303.758L182.508 399.151L182.512 399.162L188.282 427.932L242.437 286.362H301.031L213.946 493.562L155.42 493.632V493.64ZM344.12 493.817H288.829L288.828 493.816L323.413 286.206H378.728L344.12 493.816V493.817ZM440.379 496.897C415.572 496.637 391.682 491.617 378.761 485.822L386.525 439.347L393.651 442.646C411.818 450.397 423.58 453.543 445.719 453.543C461.618 453.543 478.676 447.186 478.813 433.271C478.916 424.183 471.677 417.694 450.147 407.518C429.165 397.586 401.37 380.946 401.677 351.115C402.005 310.76 440.506 282.601 495.164 282.601C516.609 282.601 533.782 287.115 544.741 291.321L537.243 336.319L532.285 333.922C522.076 329.717 508.973 325.682 490.886 325.968C469.231 325.968 459.208 335.197 459.208 343.826C459.082 353.55 470.923 359.96 490.258 369.562C522.171 384.38 536.908 402.353 536.698 425.969C536.27 469.063 498.524 496.897 440.379 496.897V496.897ZM680.029 493.883C680.029 493.883 674.955 470.042 673.3 462.775C665.233 462.775 608.806 462.685 602.458 462.685C600.311 468.3 590.812 493.883 590.812 493.883H532.726L614.877 303.623C620.692 290.104 630.601 286.407 643.844 286.407H686.586L731.358 493.887H680.029V493.883Z" fill="#393939" stroke="black"/>
<path d="M618.38 420.22C622.954 408.257 640.418 362.184 640.418 362.184C640.091 362.738 644.958 350.165 647.751 342.371L651.492 360.269C651.492 360.269 662.082 409.826 664.296 420.218H618.379L618.38 420.22V420.22Z" fill="#393939"/>
</g>
</g>
<defs>
<clipPath id="clip0_1_13">
<rect width="780" height="779" fill="white"/>
</clipPath>
<clipPath id="clip1_1_13">
<rect width="780" height="780" fill="white" transform="translate(1)"/>
</clipPath>
</defs>
</svg>
