<svg width="46" height="46" viewBox="0 0 46 46" fill="none" xmlns="http://www.w3.org/2000/svg">
<path d="M45.5969 43.5293L31.667 29.4688C34.444 26.1445 35.8325 22.3112 35.8325 17.9688C35.8325 14.7044 35.0338 11.6947 33.4362 8.93945C31.8387 6.18424 29.6589 4.00553 26.8968 2.40332C24.1347 0.801107 21.1337 0 17.8939 0C14.654 0 11.6605 0.801107 8.91334 2.40332C6.16618 4.00553 3.99383 6.18424 2.3963 8.93945C0.798767 11.6947 0 14.7044 0 17.9688C0 21.2331 0.798767 24.2428 2.3963 26.998C3.99383 29.7533 6.16618 31.932 8.91334 33.5342C11.6605 35.1364 14.6615 35.9375 17.9163 35.9375C22.3655 35.9375 26.2772 34.4701 29.6514 31.5352L43.5365 45.5508C43.8351 45.8503 44.1785 46 44.5667 46C44.9549 46 45.2908 45.8577 45.5745 45.5732C45.8582 45.2887 46 44.9443 46 44.54C46 44.1357 45.8656 43.7988 45.5969 43.5293ZM17.9163 33.1074C15.1691 33.1074 12.6384 32.4261 10.3242 31.0635C8.01006 29.7008 6.18111 27.859 4.83739 25.5381C3.49367 23.2171 2.82181 20.694 2.82181 17.9688C2.82181 15.2435 3.49367 12.7204 4.83739 10.3994C6.18111 8.07845 8.01006 6.23665 10.3242 4.87402C12.6384 3.51139 15.1616 2.83008 17.8939 2.83008C20.6261 2.83008 23.1493 3.51139 25.4635 4.87402C27.7777 6.23665 29.6066 8.07845 30.9503 10.3994C32.2941 12.7204 32.9659 15.2435 32.9659 17.9688C32.9659 19.1367 32.8315 20.2897 32.5628 21.4277C32.2941 22.5658 31.9133 23.6289 31.4206 24.6172C30.9279 25.6055 30.3382 26.5413 29.6514 27.4248C28.9646 28.3083 28.1882 29.0944 27.3223 29.7832C26.4563 30.472 25.5307 31.0635 24.5453 31.5576C23.5599 32.0518 22.4998 32.4336 21.3651 32.7031C20.2304 32.9727 19.0808 33.1074 17.9163 33.1074Z" fill="#333333"/>
</svg>
